# xmcd
# Track frame offsets: 
#        150
#        19557
#        27957
#        44537
#        63340
#        83025
#        101095
#        126502
#        150885
#        171965
#        182675
#        203910
#        221855
#        243070
# Disc length: 3719 seconds
# Revision: 0
# Processed by: cddbd v1.4b41PL1 Copyright (c) Steve Scherf et al.
# Submitted via: ExactAudioCopy v0.90a8
#
DISCID=b80e850e
DTITLE=Stevie Ray Vaughan - Stevie Ray Vaughan - Limited Tribute Editi
DTITLE=on
DYEAR=1900
DGENRE=
TTITLE0=Life Without You
TTITLE1=Scuttle Buttin'
TTITLE2=Pride and Joy
TTITLE3=Crossfire
TTITLE4=Mary Had a Little Lamb
TTITLE5=Cold Shot
TTITLE6=Wall of Denial
TTITLE7=Say What!
TTITLE8=Tightrope
TTITLE9=Love Struck Baby
TTITLE10=Couldn't Stand the Weather
TTITLE11=Change It
TTITLE12=Superstition
TTITLE13=Voodoo Chile (Slight Return)
EXTD=
EXTT0=
EXTT1=
EXTT2=
EXTT3=
EXTT4=
EXTT5=
EXTT6=
EXTT7=
EXTT8=
EXTT9=
EXTT10=
EXTT11=
EXTT12=
EXTT13=
PLAYORDER=
